<?xml version="1.0" encoding="UTF-8"?>
<svg id="_レイヤー_1" data-name="レイヤー 1" xmlns="http://www.w3.org/2000/svg" viewBox="0 0 429.23 116.88">
  <defs>
    <style>
      .cls-1 {
        fill: #0058a1;
      }

      .cls-2 {
        fill: #00b9ff;
      }

      .cls-3 {
        fill: #e6222e;
      }

      .cls-4 {
        fill: #7d7d7d;
      }
    </style>
  </defs>
  <g>
    <path class="cls-1" d="m266.7,35.21c-.55,3.03,1,4.01,3.69,4.01,1.91,0,4.05-.72,4.48-2.64.52-2.27-2.86-2.71-6.14-3.76-3.24-1.04-6.51-2.71-5.44-7.44,1.28-5.63,7.13-7.83,11.7-7.83,4.84,0,9.15,2.49,7.87,8.31h-6.34c.63-2.35-1.27-3.11-3.22-3.11-1.37,0-3.18.5-3.57,2.2-.45,1.99,2.98,2.35,6.29,3.4,3.28,1.04,6.43,2.77,5.37,7.43-1.48,6.53-7.21,8.63-12.56,8.63s-9.95-2.6-8.48-9.21h6.34Z"/>
    <path class="cls-1" d="m310.57,18.09h6.34l-5.84,25.78h-6.34l5.85-25.78Z"/>
    <path class="cls-1" d="m287.47,18.09h11.38c4.21-.07,8.55,1.08,7.33,6.46-.52,2.31-2.24,4.19-4.38,5.2,2.41.79,3.47,3.18,2.81,6.1-1.39,6.14-6.08,8.01-11.29,8.01h-11.69l5.84-25.78Zm4.04,10.15h4.91c1.09,0,2.73-.62,3.15-2.46.43-1.88-.69-2.49-2.02-2.49h-4.91l-1.12,4.95Zm-2.33,10.25h5.08c2.01,0,3.58-.76,4.06-2.89.52-2.28-.81-3.03-2.72-3.03h-5.08l-1.34,5.92Z"/>
    <path class="cls-3" d="m325.77,7.74c-3.51-9.31-23.56-10.37-44.79-2.37-15.14,5.7-26.78,14.48-30.95,22.42,5.76-6.02,15.06-11.93,26.29-16.16,21.23-8,41.28-6.93,44.79,2.38,1.01,2.67.54,5.73-1.14,8.92,5.13-5.36,7.45-10.8,5.8-15.18Z"/>
    <g>
      <path class="cls-4" d="m341.43,36.05l.46-2.36h8.45l-1.43,7.36c-1.49,1.03-2.98,1.8-4.46,2.32-1.48.52-2.94.78-4.39.78-1.96,0-3.65-.42-5.09-1.25-1.44-.84-2.41-2.04-2.92-3.63-.51-1.58-.57-3.35-.19-5.3.38-1.93,1.13-3.74,2.27-5.42,1.14-1.68,2.54-2.92,4.22-3.74,1.68-.81,3.51-1.22,5.49-1.22,1.44,0,2.7.23,3.77.7,1.07.47,1.86,1.12,2.36,1.95.5.83.79,1.92.87,3.26l-2.49.65c-.1-1.02-.32-1.81-.65-2.4-.33-.58-.87-1.05-1.63-1.4-.76-.35-1.64-.52-2.64-.52-1.21,0-2.28.18-3.23.55-.95.37-1.75.85-2.41,1.45-.66.6-1.2,1.25-1.64,1.97-.75,1.23-1.26,2.57-1.54,4.01-.35,1.77-.33,3.26.05,4.45.38,1.19,1.1,2.08,2.15,2.66,1.06.58,2.24.87,3.56.87,1.14,0,2.3-.22,3.47-.65,1.17-.44,2.09-.9,2.75-1.4l.72-3.69h-5.89Z"/>
      <path class="cls-4" d="m352.28,43.84l3.87-19.89h8.82c1.77,0,3.08.18,3.93.53.85.36,1.47.99,1.84,1.89.38.9.46,1.9.25,2.99-.27,1.41-.96,2.59-2.06,3.56-1.1.97-2.63,1.58-4.59,1.84.63.34,1.09.67,1.39.99.63.71,1.18,1.59,1.66,2.65l2.38,5.43h-3.28l-1.82-4.15c-.54-1.2-.99-2.11-1.36-2.75-.37-.63-.73-1.08-1.08-1.33-.34-.25-.71-.42-1.1-.52-.29-.06-.77-.09-1.45-.09h-3.05l-1.72,8.84h-2.64Zm4.8-11.12h5.65c1.2,0,2.16-.12,2.89-.37.72-.25,1.31-.65,1.77-1.19.46-.55.75-1.14.87-1.78.18-.94,0-1.71-.57-2.31-.56-.6-1.58-.91-3.05-.91h-6.29l-1.28,6.56Z"/>
      <path class="cls-4" d="m372.27,34.14c.64-3.3,2.03-5.88,4.16-7.74,2.13-1.87,4.6-2.8,7.41-2.8,1.84,0,3.4.44,4.71,1.32,1.3.88,2.19,2.1,2.66,3.66.47,1.57.51,3.34.12,5.33-.39,2.01-1.15,3.82-2.27,5.41-1.12,1.59-2.51,2.79-4.16,3.61-1.65.82-3.34,1.23-5.07,1.23-1.87,0-3.46-.45-4.76-1.36-1.3-.9-2.18-2.14-2.63-3.7-.46-1.56-.51-3.22-.18-4.96Zm2.71.05c-.47,2.39-.19,4.28.83,5.65,1.02,1.38,2.5,2.07,4.44,2.07s3.74-.7,5.29-2.09c1.55-1.39,2.57-3.36,3.07-5.92.31-1.62.31-3.03,0-4.23-.31-1.2-.93-2.14-1.85-2.8-.92-.66-2.04-1-3.35-1-1.86,0-3.58.64-5.17,1.92-1.59,1.28-2.67,3.41-3.25,6.4Z"/>
      <path class="cls-4" d="m409.11,23.95h2.64l-2.23,11.48c-.39,2-.92,3.58-1.6,4.76-.68,1.17-1.68,2.13-3,2.86-1.32.74-2.94,1.1-4.85,1.1s-3.32-.32-4.38-.96c-1.06-.64-1.72-1.57-1.99-2.78-.27-1.22-.2-2.87.21-4.98l2.23-11.48h2.64l-2.23,11.47c-.34,1.73-.42,3-.26,3.82.16.82.59,1.45,1.28,1.89.69.44,1.6.66,2.73.66,1.93,0,3.38-.44,4.37-1.31.99-.88,1.73-2.56,2.21-5.06l2.23-11.47Z"/>
      <path class="cls-4" d="m411.18,43.84l3.87-19.89h7.5c1.32,0,2.32.06,2.99.19.94.16,1.7.47,2.27.93.57.46.98,1.1,1.22,1.92.24.83.27,1.73.07,2.72-.33,1.7-1.15,3.13-2.45,4.3-1.3,1.17-3.36,1.76-6.17,1.76h-5.09l-1.57,8.06h-2.64Zm4.67-10.41h5.13c1.7,0,2.96-.32,3.8-.95.84-.63,1.37-1.53,1.59-2.67.16-.83.09-1.54-.21-2.14-.3-.59-.78-.98-1.43-1.17-.42-.12-1.22-.18-2.41-.18h-5.07l-1.38,7.11Z"/>
    </g>
  </g>
  <g>
    <rect class="cls-2" x="134.57" y="59.16" width="9.85" height="56.48"/>
    <rect class="cls-2" x="312.58" y="59.16" width="9.85" height="56.48"/>
    <polygon class="cls-2" points="153.13 69.01 167.29 69.01 167.29 115.64 177.14 115.64 177.14 69.01 191.3 69.01 191.3 59.16 153.13 59.16 153.13 69.01"/>
    <polygon class="cls-2" points="390.97 59.16 390.97 69.01 405.13 69.01 405.13 115.64 414.98 115.64 414.98 69.01 429.14 69.01 429.14 59.16 390.97 59.16"/>
    <path class="cls-2" d="m114.79,79.76c.91-1.88,1.43-3.99,1.43-6.22,0-7.93-6.45-14.38-14.38-14.38h-16.52v56.48h21.73c10.36,0,18.78-8.43,18.78-18.78,0-7.6-4.54-14.14-11.04-17.1Zm-19.62-10.75h6.67c2.5,0,4.53,2.03,4.53,4.53s-2.03,4.53-4.53,4.53h-6.67v-9.06Zm11.88,36.77h-11.88v-17.86h11.88c4.93,0,8.93,4.01,8.93,8.93s-4.01,8.93-8.93,8.93Z"/>
    <path class="cls-2" d="m219.42,59.16h-19.25v56.48h9.85v-18.91h9.39c10.36,0,18.78-8.43,18.78-18.78s-8.43-18.78-18.78-18.78Zm0,27.72h-9.39v-17.86h9.39c4.93,0,8.93,4.01,8.93,8.93s-4.01,8.93-8.93,8.93Z"/>
    <polygon class="cls-2" points="372.33 93.7 335.22 57.91 335.22 115.64 345.07 115.64 345.07 81.1 382.19 116.88 382.19 59.16 372.33 59.16 372.33 93.7"/>
    <path class="cls-2" d="m273.68,58.52c-15.92,0-28.88,12.96-28.88,28.88s12.96,28.88,28.88,28.88,28.88-12.96,28.88-28.88-12.96-28.88-28.88-28.88Zm0,47.91c-10.49,0-19.03-8.54-19.03-19.03s8.54-19.03,19.03-19.03,19.03,8.54,19.03,19.03-8.54,19.03-19.03,19.03Z"/>
  </g>
  <path class="cls-2" d="m65.02,62.03c-1.36-5.29-6.16-9.21-11.87-9.21-3.81,0-7.21,1.73-9.46,4.45L0,102.21h20.57c4.48,3.13,9.76,4.56,15,4.34l4.59,8.9h6.64l-5.13-9.95c3.69-1.13,7.17-3.13,10.09-6.04,6.28-6.28,8.39-15.13,6.39-23.16,3.44-1.54,6.04-4.62,6.93-8.36l5.1-2.94-5.15-2.97Zm-20.69,29.9c-5.35,5.35-14.03,5.35-19.38,0l19.38-19.38c5.35,5.35,5.35,14.03,0,19.38Zm8.82-24.4c-1.35,0-2.44-1.09-2.44-2.44s1.09-2.44,2.44-2.44,2.44,1.09,2.44,2.44-1.09,2.44-2.44,2.44Z"/>
</svg>