<svg xmlns="http://www.w3.org/2000/svg" width="197" height="40" fill="currentColor" viewBox="0 0 198 40" class="h-full w-auto object-left" id="svg-clipper-94jn3uimjbw"><title>Exodus</title><g clip-path="url(#svg-1739438043-a)"><path d="M74.531 14.497V11H54.04v18H74.53v-3.497H58.222v-3.93H72.08v-3.498H58.223v-3.578zM86.214 19.892 76.844 29h5.574l6.875-6.614L95.318 29h5.813l-9.37-9.108L100.84 11h-5.388l-6.158 6.425L82.869 11h-5.76z"></path><path fill-rule="evenodd" d="M112.367 11c7.591 0 12.157 3.757 12.157 9s-4.566 9-12.157 9-12.131-3.757-12.131-9 4.54-9 12.131-9m0 3.365c-4.565 0-7.931 2.27-7.931 5.635s3.366 5.635 7.931 5.635c4.591 0 7.956-2.27 7.956-5.635s-3.365-5.635-7.956-5.635M149.4 19.973c0-5.639-3.664-8.973-9.744-8.973h-12.267v18h12.32c6.053 0 9.691-3.334 9.691-9.027m-10.275-5.476c3.849 0 5.973 1.952 5.973 5.476 0 3.551-2.124 5.53-5.973 5.53h-7.567V14.497z" clip-rule="evenodd"></path><path d="M163.186 29c-6.402 0-11.258-2.872-11.258-8.163V11h4.189v9.439c0 3.27 3.441 4.785 7.069 4.785 3.655 0 7.097-1.488 7.097-4.785V11h4.162v9.837c0 5.291-4.829 8.163-11.259 8.163M176.388 27.2c2.633 1.174 6.341 1.8 9.781 1.8 6.181 0 10.964-2.009 10.964-5.609 0-2.843-2.257-4.304-6.611-4.904l-5.697-.626c-2.418-.34-3.359-.757-3.359-1.591 0-1.2 1.881-1.853 4.73-1.853 2.768 0 6.691.47 9.002 1.41l1.371-3.184C194.231 11.6 189.689 11 186.384 11c-5.482 0-9.217 2.06-9.217 5.557 0 2.713 2.203 4.252 6.718 4.852l5.858.626c2.069.313 3.063.704 3.063 1.617 0 1.252-3.144 1.957-6.503 1.957-2.929 0-6.18-.679-8.545-1.748z"></path><path fill="url(#svg-1739438043-b)" d="M17.722 22.587h-9.72L6.7 26.655l11.059 7.1V40L.485 28.867l2.818-8.85L.485 11.17 17.722 0v6.244L6.7 13.345l1.265 4.068h9.757z"></path><path fill="url(#svg-1739438043-c)" d="m22.999 0 17.237 11.169-2.818 8.849 2.818 8.85L23 40v-6.244l11.058-7.101-1.301-4.068h-9.757v-5.174h9.757l1.3-4.068L23 6.245z"></path><path fill="url(#svg-1739438043-d)" d="M8.001 22.587h9.721v-5.174H7.965L6.7 13.345l11.022-7.1V0L.506 11.155v.08l2.797 8.783L.506 28.8v.08L17.759 40v-6.244L6.7 26.655z"></path><path fill="url(#svg-1739438043-e)" d="M39.973 28.04v.997L22.999 40v-6.244l11.058-7.101-1.301-4.068h-9.757v-5.174h9.757l1.3-4.068L23 6.245V0l16.974 10.998v.998l-2.556 8.022z"></path></g><defs><linearGradient id="svg-1739438043-b" x1="34.66" x2="23.37" y1="42.75" y2="-4.454" gradientUnits="userSpaceOnUse"><stop stop-color="#0B46F9"></stop><stop offset="1" stop-color="#BBFBE0"></stop></linearGradient><linearGradient id="svg-1739438043-c" x1="34.66" x2="23.37" y1="42.75" y2="-4.454" gradientUnits="userSpaceOnUse"><stop stop-color="#0B46F9"></stop><stop offset="1" stop-color="#BBFBE0"></stop></linearGradient><linearGradient id="svg-1739438043-d" x1="3.036" x2="22.851" y1="9" y2="23.976" gradientUnits="userSpaceOnUse"><stop offset="0.12" stop-color="#8952FF" stop-opacity="0.87"></stop><stop offset="1" stop-color="#DABDFF" stop-opacity="0"></stop></linearGradient><linearGradient id="svg-1739438043-e" x1="3.036" x2="22.851" y1="9" y2="23.976" gradientUnits="userSpaceOnUse"><stop offset="0.12" stop-color="#8952FF" stop-opacity="0.87"></stop><stop offset="1" stop-color="#DABDFF" stop-opacity="0"></stop></linearGradient><clipPath id="svg-1739438043-a"><path fill="#fff" d="M0 0h198v40H0z"></path></clipPath></defs></svg>