<svg width="1600" height="300" viewBox="0 0 1600 300" fill="none" xmlns="http://www.w3.org/2000/svg">
<g clip-path="url(#clip0)">
<path d="M1337.01 80.26H1286.08V298.32H1337.01V80.26Z" fill="#222222"/>
<path d="M904.32 256.27C861.56 256.27 836.5 229.73 836.5 192.53C836.5 156.12 855.77 125.53 900.88 125.53C938.69 125.53 967.88 141.53 967.88 141.53V94C967.88 94 938.33 80.1 899.88 80.1C830.61 80.1 786.6 127.85 786.6 192.53C786.6 256.77 834.65 300 903.6 300C942.32 300 972.81 286.22 972.81 286.22V239.75C972.81 239.75 939.71 256.27 904.32 256.27Z" fill="#222222"/>
<path d="M240.54 80.22C210.67 80.22 191.44 91 171.8 114.08C153.24 91.91 131.22 80.22 101.8 80.22C46.27 80.22 8.03003 122.1 8.03003 177.64V298.32H58.15V172.7C58.15 146.04 74.33 125.94 101.76 125.94C129.45 125.94 147.15 146 147.15 172.7V298.32H196.45V172.7C196.45 146.04 213.15 125.94 240.58 125.94C268.26 125.94 286.42 146.04 286.42 172.7V298.32H336.6V177.64C336.56 122.1 296.32 80.22 240.54 80.22Z" fill="#222222"/>
<path d="M1311.54 56.3C1327.09 56.3 1339.69 43.6968 1339.69 28.15C1339.69 12.6032 1327.09 0 1311.54 0C1295.99 0 1283.39 12.6032 1283.39 28.15C1283.39 43.6968 1295.99 56.3 1311.54 56.3Z" fill="#222222"/>
<path d="M735.28 125.94C707.85 125.94 691.67 148.74 691.67 179.08V298.33H641.51V177.64C641.51 122.1 679.75 80.22 735.28 80.22H753.4V125.76L735.28 125.94Z" fill="#222222"/>
<path d="M491.46 80.05C423.76 80.05 383.3 134.35 383.3 190.42C383.3 258.94 432.46 299.67 500.19 299.67C544.07 299.67 579.59 285.74 579.59 285.74V241.74C579.59 241.74 539.7 258.28 502.59 258.28C464.92 258.28 438.68 241.49 433.85 208.01H586.39C587.437 200.01 587.938 191.948 587.89 183.88C587.89 123.32 542.15 80.05 491.46 80.05ZM434.27 168.34C441.49 131.46 468.94 121.94 490.06 121.94C512.9 121.94 540.2 136.5 544.17 168.34H434.27Z" fill="#222222"/>
<path d="M1396.47 172.53V298.32H1446.65V179.26C1446.65 143.94 1464.05 123.68 1494.39 123.68C1524.96 123.68 1542.49 143.94 1542.49 179.26V298.32H1592.3V172.53C1592.3 113.87 1556.61 80.22 1494.39 80.22C1433.07 80.22 1396.47 114.73 1396.47 172.53Z" fill="#222222"/>
<path d="M1122.5 80.1C1100.74 80.0901 1079.47 86.5331 1061.37 98.614C1043.28 110.695 1029.17 127.871 1020.84 147.97C1012.5 168.069 1010.32 190.188 1014.56 211.529C1018.8 232.87 1029.27 252.475 1044.65 267.864C1060.03 283.253 1079.63 293.734 1100.97 297.983C1122.31 302.231 1144.43 300.056 1164.53 291.732C1184.64 283.407 1201.82 269.308 1213.91 251.218C1226 233.127 1232.45 211.858 1232.45 190.1C1232.45 160.935 1220.87 132.963 1200.25 112.336C1179.63 91.7083 1151.67 80.1132 1122.5 80.1V80.1ZM1122.5 252.3C1110.19 252.298 1098.15 248.645 1087.92 241.804C1077.68 234.963 1069.71 225.24 1065 213.865C1060.29 202.49 1059.05 189.974 1061.46 177.899C1063.86 165.825 1069.79 154.734 1078.5 146.029C1087.2 137.324 1098.29 131.396 1110.37 128.995C1122.44 126.594 1134.96 127.828 1146.33 132.539C1157.71 137.251 1167.43 145.23 1174.27 155.467C1181.11 165.704 1184.76 177.739 1184.76 190.05C1184.76 198.226 1183.15 206.321 1180.02 213.874C1176.89 221.428 1172.31 228.29 1166.52 234.071C1160.74 239.852 1153.88 244.437 1146.33 247.564C1138.77 250.692 1130.68 252.301 1122.5 252.3V252.3Z" fill="#222222"/>
</g>
<defs>
<clipPath id="clip0">
<rect width="1584.3" height="300" fill="white" transform="translate(8)"/>
</clipPath>
</defs>
</svg>
