<svg width="104" height="23" viewBox="0 0 104 23" fill="none" xmlns="http://www.w3.org/2000/svg">
<title>S.BLOX Logo</title>
<path d="M13.5336 0.797835L12.7627 4.38772C11.2215 3.81763 9.56541 3.58988 8.052 3.58988C6.28185 3.58988 4.56875 4.10085 4.56875 5.89798C4.56875 7.43671 5.82468 8.17688 8.70886 9.37399C12.3348 10.8558 14.7903 12.3368 14.7903 16.1837C14.7903 20.5714 10.9925 22.6233 6.68123 22.6233C4.68286 22.6233 2.17027 22.2809 0 21.5116L0.799494 17.8618C2.77007 18.6597 4.93961 19.0297 6.5386 19.0297C8.96561 19.0297 10.3079 18.175 10.3079 16.4946C10.3079 14.8705 8.99121 14.0727 5.99585 12.8755C2.51259 11.4799 0.0855806 9.71268 0.0855806 6.35055C0.0855806 1.79202 4.05453 0 7.79526 0C9.90774 0 11.9346 0.284681 13.5336 0.797835Z" fill="black"/>
<path d="M18.4162 22.2525V17.4348H23.1276V22.2525H18.4162Z" fill="black"/>
<path d="M27.8382 22.2525V0.370117H37.0035C40.8584 0.370117 43.7133 1.99425 43.7133 5.86954C43.7133 8.69006 42.1428 10.1149 40.1722 10.8558V10.9128C42.3996 11.5091 44.2831 12.9639 44.2831 16.1552C44.2831 19.4035 42.0887 22.2525 37.174 22.2525H27.8382ZM32.3207 3.96073V9.28935H35.4901C37.8601 9.28935 39.2301 8.51998 39.2301 6.52577C39.2301 4.41695 37.5477 3.96146 35.7191 3.96146L32.3207 3.96073ZM32.3207 12.8785V18.6626H35.9444C38.228 18.6626 39.7699 18.0925 39.7699 15.7852C39.7699 13.4778 37.9193 12.8785 35.4045 12.8785H32.3207Z" fill="black"/>
<path d="M47.7941 22.2525V0.370117H52.2766V18.6626H61.014V22.2525H47.7941Z" fill="black"/>
<path d="M82.7057 11.3397C82.7057 17.8932 79.0483 22.6233 72.3986 22.6233C65.8029 22.6233 62.12 17.8932 62.12 11.3397C62.12 4.7578 65.7459 0 72.3986 0C79.1083 0 82.7057 4.7578 82.7057 11.3397ZM78.2232 11.3397C78.2232 7.03743 76.3946 3.58988 72.3986 3.58988C68.4296 3.58988 66.6024 7.03743 66.6024 11.3397C66.6024 15.6136 68.4581 19.0327 72.4542 19.0327C76.4816 19.0327 78.2232 15.6136 78.2232 11.3397Z" fill="black"/>
<path d="M97.5896 0.370117H102.701L96.2766 10.8814L103.215 22.2496H97.9326L93.2183 14.0471L88.4213 22.2525H83.1394L90.1352 10.8843L83.7392 0.373038H88.9326L93.2183 7.86376L97.5896 0.370117Z" fill="black"/>
</svg>
